<svg width="35" height="55" viewBox="0 0 35 55" fill="none" xmlns="http://www.w3.org/2000/svg">
<path d="M34.3583 17.2362C34.3584 14.4916 33.7052 11.7865 32.453 9.34629C31.2008 6.90603 29.3858 4.80108 27.1591 3.20662C24.9323 1.61215 22.3582 0.574276 19.651 0.179353C16.9438 -0.21557 14.1817 0.0438815 11.5946 0.936117C9.00743 1.82835 6.67011 3.32757 4.77709 5.30901C2.88406 7.29046 1.49007 9.69683 0.711115 12.3279C-0.0678384 14.9589 -0.209229 17.7386 0.298709 20.4355C0.806647 23.1325 1.94923 25.6687 3.63136 27.8332C7.23601 32.2988 9.23771 37.8515 9.3141 43.5973V44.6658H25.0267V43.0806C25.097 37.5705 27.0472 32.251 30.5523 28.0084C33.0121 24.9603 34.3554 21.1581 34.3583 17.2362Z" fill="url(#paint0_linear_71_17)"/>
<path d="M8.93317 48.1014H25.4251" stroke="#6C6FDE" stroke-width="1.71791" stroke-linecap="round"/>
<path d="M8.93317 50.8502H25.4251" stroke="#6C6FDE" stroke-width="1.71791" stroke-linecap="round"/>
<path d="M8.93317 53.5989H25.4251" stroke="#6C6FDE" stroke-width="1.71791" stroke-linecap="round"/>
<path d="M16.0464 2.06139C16.7892 3.2022 12.0115 3.76999 8.83113 5.8408C5.65078 7.9116 4.17876 12.1354 3.43595 10.9945C2.69314 9.85373 4.62006 6.19374 7.80041 4.12293C10.9808 2.05213 15.3036 0.920576 16.0464 2.06139Z" fill="white"/>
<defs>
<linearGradient id="paint0_linear_71_17" x1="17.1791" y1="0" x2="17.1791" y2="44.6658" gradientUnits="userSpaceOnUse">
<stop stop-color="#F7E5C1"/>
<stop offset="1" stop-color="#6C6FDE"/>
</linearGradient>
</defs>
</svg>
