<svg width="204" height="38" viewBox="0 0 204 38" fill="none" xmlns="http://www.w3.org/2000/svg">
<path d="M23.6318 11.8552C23.6319 9.96737 23.1826 8.10685 22.3213 6.42842C21.4601 4.75 20.2117 3.30221 18.6801 2.20553C17.1486 1.10885 15.3781 0.39499 13.5161 0.12336C11.654 -0.14827 9.75423 0.030182 7.97479 0.643866C6.19536 1.25755 4.58774 2.28872 3.2857 3.65157C1.98367 5.01442 1.02488 6.66953 0.489109 8.47918C-0.0466596 10.2888 -0.143909 12.2007 0.205454 14.0557C0.554816 15.9106 1.34069 17.6551 2.49767 19.1438C4.97697 22.2153 6.35374 26.0345 6.40629 29.9865V30.7214H17.2135V29.6311C17.2619 25.8412 18.6032 22.1824 21.0141 19.2643C22.7059 17.1678 23.6299 14.5526 23.6318 11.8552Z" fill="url(#paint0_linear_107_44)"/>
<path d="M6.14427 33.0844H17.4875" stroke="#6C6FDE" stroke-width="1.18159" stroke-linecap="round"/>
<path d="M6.14427 34.975H17.4875" stroke="#6C6FDE" stroke-width="1.18159" stroke-linecap="round"/>
<path d="M6.14427 36.8656H17.4875" stroke="#6C6FDE" stroke-width="1.18159" stroke-linecap="round"/>
<path d="M11.0368 1.41784C11.5477 2.2025 8.26156 2.59303 6.0741 4.01734C3.88663 5.44165 2.87417 8.34677 2.36326 7.56211C1.85236 6.77746 3.1777 4.2601 5.36516 2.83579C7.55263 1.41148 10.5259 0.633188 11.0368 1.41784Z" fill="white"/>
<path d="M47.2031 16.5156V20.1719H35.3281V16.5156H47.2031ZM36.7188 7.25V30H32.0312V7.25H36.7188ZM50.5469 7.25V30H45.875V7.25H50.5469ZM63.4688 26.1875V18.6562C63.4688 18.1146 63.3802 17.651 63.2031 17.2656C63.026 16.8698 62.75 16.5625 62.375 16.3438C62.0104 16.125 61.5365 16.0156 60.9531 16.0156C60.4531 16.0156 60.0208 16.1042 59.6562 16.2812C59.2917 16.4479 59.0104 16.6927 58.8125 17.0156C58.6146 17.3281 58.5156 17.6979 58.5156 18.125H54.0156C54.0156 17.4062 54.1823 16.724 54.5156 16.0781C54.849 15.4323 55.3333 14.8646 55.9688 14.375C56.6042 13.875 57.3594 13.4844 58.2344 13.2031C59.1198 12.9219 60.1094 12.7812 61.2031 12.7812C62.5156 12.7812 63.6823 13 64.7031 13.4375C65.724 13.875 66.526 14.5312 67.1094 15.4062C67.7031 16.2812 68 17.375 68 18.6875V25.9219C68 26.849 68.0573 27.6094 68.1719 28.2031C68.2865 28.7865 68.4531 29.2969 68.6719 29.7344V30H64.125C63.9062 29.5417 63.7396 28.9688 63.625 28.2812C63.5208 27.5833 63.4688 26.8854 63.4688 26.1875ZM64.0625 19.7031L64.0938 22.25H61.5781C60.9844 22.25 60.4688 22.3177 60.0312 22.4531C59.5938 22.5885 59.2344 22.7812 58.9531 23.0312C58.6719 23.2708 58.4635 23.5521 58.3281 23.875C58.2031 24.1979 58.1406 24.5521 58.1406 24.9375C58.1406 25.3229 58.2292 25.6719 58.4062 25.9844C58.5833 26.2865 58.8385 26.526 59.1719 26.7031C59.5052 26.8698 59.8958 26.9531 60.3438 26.9531C61.0208 26.9531 61.6094 26.8177 62.1094 26.5469C62.6094 26.276 62.9948 25.9427 63.2656 25.5469C63.5469 25.151 63.6927 24.776 63.7031 24.4219L64.8906 26.3281C64.724 26.7552 64.4948 27.1979 64.2031 27.6562C63.9219 28.1146 63.5625 28.5469 63.125 28.9531C62.6875 29.349 62.1615 29.6771 61.5469 29.9375C60.9323 30.1875 60.2031 30.3125 59.3594 30.3125C58.2865 30.3125 57.3125 30.099 56.4375 29.6719C55.5729 29.2344 54.8854 28.6354 54.375 27.875C53.875 27.1042 53.625 26.2292 53.625 25.25C53.625 24.3646 53.7917 23.5781 54.125 22.8906C54.4583 22.2031 54.9479 21.625 55.5938 21.1562C56.25 20.6771 57.0677 20.3177 58.0469 20.0781C59.026 19.8281 60.1615 19.7031 61.4531 19.7031H64.0625ZM76.2188 6V30H71.7031V6H76.2188ZM84.6875 6V30H80.1719V6H84.6875ZM98.4062 25.9531V13.0938H102.906V30H98.6719L98.4062 25.9531ZM98.9062 22.4844L100.234 22.4531C100.234 23.5781 100.104 24.625 99.8438 25.5938C99.5833 26.5521 99.1927 27.3854 98.6719 28.0938C98.151 28.7917 97.4948 29.3385 96.7031 29.7344C95.9115 30.1198 94.9792 30.3125 93.9062 30.3125C93.0833 30.3125 92.3229 30.1979 91.625 29.9688C90.9375 29.7292 90.3438 29.3594 89.8438 28.8594C89.3542 28.349 88.9688 27.6979 88.6875 26.9062C88.4167 26.1042 88.2812 25.1406 88.2812 24.0156V13.0938H92.7812V24.0469C92.7812 24.5469 92.8385 24.9688 92.9531 25.3125C93.0781 25.6562 93.25 25.9375 93.4688 26.1562C93.6875 26.375 93.9427 26.5312 94.2344 26.625C94.5365 26.7188 94.8698 26.7656 95.2344 26.7656C96.1615 26.7656 96.8906 26.5781 97.4219 26.2031C97.9635 25.8281 98.3438 25.3177 98.5625 24.6719C98.7917 24.0156 98.9062 23.2865 98.9062 22.4844ZM110.844 16.5938V30H106.328V13.0938H110.562L110.844 16.5938ZM110.219 20.9531H108.969C108.969 19.776 109.109 18.6927 109.391 17.7031C109.682 16.7031 110.104 15.8385 110.656 15.1094C111.219 14.3698 111.911 13.7969 112.734 13.3906C113.557 12.9844 114.51 12.7812 115.594 12.7812C116.344 12.7812 117.031 12.8958 117.656 13.125C118.281 13.3438 118.818 13.6927 119.266 14.1719C119.724 14.6406 120.078 15.2552 120.328 16.0156C120.578 16.7656 120.703 17.6667 120.703 18.7188V30H116.203V19.2188C116.203 18.4479 116.099 17.8542 115.891 17.4375C115.682 17.0208 115.385 16.7292 115 16.5625C114.625 16.3958 114.172 16.3125 113.641 16.3125C113.057 16.3125 112.547 16.4323 112.109 16.6719C111.682 16.9115 111.328 17.2448 111.047 17.6719C110.766 18.0885 110.557 18.5781 110.422 19.1406C110.286 19.7031 110.219 20.3073 110.219 20.9531ZM120.281 20.4375L118.672 20.6406C118.672 19.5365 118.807 18.5104 119.078 17.5625C119.359 16.6146 119.771 15.7812 120.312 15.0625C120.865 14.3438 121.547 13.7865 122.359 13.3906C123.172 12.9844 124.109 12.7812 125.172 12.7812C125.984 12.7812 126.724 12.901 127.391 13.1406C128.057 13.3698 128.625 13.7396 129.094 14.25C129.573 14.75 129.938 15.4062 130.188 16.2188C130.448 17.0312 130.578 18.026 130.578 19.2031V30H126.062V19.2031C126.062 18.4219 125.958 17.8281 125.75 17.4219C125.552 17.0052 125.26 16.7188 124.875 16.5625C124.5 16.3958 124.052 16.3125 123.531 16.3125C122.99 16.3125 122.516 16.4219 122.109 16.6406C121.703 16.849 121.365 17.1406 121.094 17.5156C120.823 17.8906 120.62 18.3281 120.484 18.8281C120.349 19.3177 120.281 19.8542 120.281 20.4375ZM138.812 13.0938V30H134.297V13.0938H138.812ZM134.016 8.6875C134.016 8.03125 134.245 7.48958 134.703 7.0625C135.161 6.63542 135.776 6.42188 136.547 6.42188C137.307 6.42188 137.917 6.63542 138.375 7.0625C138.844 7.48958 139.078 8.03125 139.078 8.6875C139.078 9.34375 138.844 9.88542 138.375 10.3125C137.917 10.7396 137.307 10.9531 136.547 10.9531C135.776 10.9531 135.161 10.7396 134.703 10.3125C134.245 9.88542 134.016 9.34375 134.016 8.6875ZM146.938 16.7031V30H142.438V13.0938H146.656L146.938 16.7031ZM146.281 20.9531H145.062C145.062 19.7031 145.224 18.5781 145.547 17.5781C145.87 16.5677 146.323 15.7083 146.906 15C147.49 14.2812 148.182 13.7344 148.984 13.3594C149.797 12.974 150.703 12.7812 151.703 12.7812C152.495 12.7812 153.219 12.8958 153.875 13.125C154.531 13.3542 155.094 13.7188 155.562 14.2188C156.042 14.7188 156.406 15.3802 156.656 16.2031C156.917 17.026 157.047 18.0312 157.047 19.2188V30H152.516V19.2031C152.516 18.4531 152.411 17.8698 152.203 17.4531C151.995 17.0365 151.688 16.7448 151.281 16.5781C150.885 16.401 150.396 16.3125 149.812 16.3125C149.208 16.3125 148.682 16.4323 148.234 16.6719C147.797 16.9115 147.432 17.2448 147.141 17.6719C146.859 18.0885 146.646 18.5781 146.5 19.1406C146.354 19.7031 146.281 20.3073 146.281 20.9531ZM169.594 26.1875V18.6562C169.594 18.1146 169.505 17.651 169.328 17.2656C169.151 16.8698 168.875 16.5625 168.5 16.3438C168.135 16.125 167.661 16.0156 167.078 16.0156C166.578 16.0156 166.146 16.1042 165.781 16.2812C165.417 16.4479 165.135 16.6927 164.938 17.0156C164.74 17.3281 164.641 17.6979 164.641 18.125H160.141C160.141 17.4062 160.307 16.724 160.641 16.0781C160.974 15.4323 161.458 14.8646 162.094 14.375C162.729 13.875 163.484 13.4844 164.359 13.2031C165.245 12.9219 166.234 12.7812 167.328 12.7812C168.641 12.7812 169.807 13 170.828 13.4375C171.849 13.875 172.651 14.5312 173.234 15.4062C173.828 16.2812 174.125 17.375 174.125 18.6875V25.9219C174.125 26.849 174.182 27.6094 174.297 28.2031C174.411 28.7865 174.578 29.2969 174.797 29.7344V30H170.25C170.031 29.5417 169.865 28.9688 169.75 28.2812C169.646 27.5833 169.594 26.8854 169.594 26.1875ZM170.188 19.7031L170.219 22.25H167.703C167.109 22.25 166.594 22.3177 166.156 22.4531C165.719 22.5885 165.359 22.7812 165.078 23.0312C164.797 23.2708 164.589 23.5521 164.453 23.875C164.328 24.1979 164.266 24.5521 164.266 24.9375C164.266 25.3229 164.354 25.6719 164.531 25.9844C164.708 26.2865 164.964 26.526 165.297 26.7031C165.63 26.8698 166.021 26.9531 166.469 26.9531C167.146 26.9531 167.734 26.8177 168.234 26.5469C168.734 26.276 169.12 25.9427 169.391 25.5469C169.672 25.151 169.818 24.776 169.828 24.4219L171.016 26.3281C170.849 26.7552 170.62 27.1979 170.328 27.6562C170.047 28.1146 169.688 28.5469 169.25 28.9531C168.812 29.349 168.286 29.6771 167.672 29.9375C167.057 30.1875 166.328 30.3125 165.484 30.3125C164.411 30.3125 163.438 30.099 162.562 29.6719C161.698 29.2344 161.01 28.6354 160.5 27.875C160 27.1042 159.75 26.2292 159.75 25.25C159.75 24.3646 159.917 23.5781 160.25 22.8906C160.583 22.2031 161.073 21.625 161.719 21.1562C162.375 20.6771 163.193 20.3177 164.172 20.0781C165.151 19.8281 166.286 19.7031 167.578 19.7031H170.188ZM185.875 13.0938V16.2812H176.031V13.0938H185.875ZM178.469 8.92188H182.969V24.9062C182.969 25.3958 183.031 25.7708 183.156 26.0312C183.292 26.2917 183.49 26.474 183.75 26.5781C184.01 26.6719 184.339 26.7188 184.734 26.7188C185.016 26.7188 185.266 26.7083 185.484 26.6875C185.714 26.6562 185.906 26.625 186.062 26.5938L186.078 29.9062C185.693 30.0312 185.276 30.1302 184.828 30.2031C184.38 30.276 183.885 30.3125 183.344 30.3125C182.354 30.3125 181.49 30.151 180.75 29.8281C180.021 29.4948 179.458 28.9635 179.062 28.2344C178.667 27.5052 178.469 26.5469 178.469 25.3594V8.92188ZM196.219 30.3125C194.906 30.3125 193.729 30.1042 192.688 29.6875C191.646 29.2604 190.76 28.6719 190.031 27.9219C189.312 27.1719 188.76 26.3021 188.375 25.3125C187.99 24.3125 187.797 23.25 187.797 22.125V21.5C187.797 20.2188 187.979 19.0469 188.344 17.9844C188.708 16.9219 189.229 16 189.906 15.2188C190.594 14.4375 191.427 13.8385 192.406 13.4219C193.385 12.9948 194.49 12.7812 195.719 12.7812C196.917 12.7812 197.979 12.9792 198.906 13.375C199.833 13.7708 200.609 14.3333 201.234 15.0625C201.87 15.7917 202.349 16.6667 202.672 17.6875C202.995 18.6979 203.156 19.8229 203.156 21.0625V22.9375H189.719V19.9375H198.734V19.5938C198.734 18.9688 198.62 18.4115 198.391 17.9219C198.172 17.4219 197.839 17.026 197.391 16.7344C196.943 16.4427 196.37 16.2969 195.672 16.2969C195.078 16.2969 194.568 16.4271 194.141 16.6875C193.714 16.9479 193.365 17.3125 193.094 17.7812C192.833 18.25 192.635 18.8021 192.5 19.4375C192.375 20.0625 192.312 20.75 192.312 21.5V22.125C192.312 22.8021 192.406 23.4271 192.594 24C192.792 24.5729 193.068 25.0677 193.422 25.4844C193.786 25.901 194.224 26.224 194.734 26.4531C195.255 26.6823 195.844 26.7969 196.5 26.7969C197.312 26.7969 198.068 26.6406 198.766 26.3281C199.474 26.0052 200.083 25.5208 200.594 24.875L202.781 27.25C202.427 27.7604 201.943 28.25 201.328 28.7188C200.724 29.1875 199.995 29.5729 199.141 29.875C198.286 30.1667 197.312 30.3125 196.219 30.3125Z" fill="url(#paint1_linear_107_44)"/>
<defs>
<linearGradient id="paint0_linear_107_44" x1="11.8159" y1="0" x2="11.8159" y2="30.7214" gradientUnits="userSpaceOnUse">
<stop stop-color="#F7E5C1"/>
<stop offset="1" stop-color="#6C6FDE"/>
</linearGradient>
<linearGradient id="paint1_linear_107_44" x1="117" y1="38" x2="117" y2="0" gradientUnits="userSpaceOnUse">
<stop offset="0.3" stop-color="#7678DD"/>
<stop offset="1" stop-color="#F1E0C3"/>
</linearGradient>
</defs>
</svg>
