<svg width="212" height="46" viewBox="0 0 212 46" fill="none" xmlns="http://www.w3.org/2000/svg">
<g filter="url(#filter0_d_107_44)">
<path d="M29.6318 17.8552C29.6319 15.9674 29.1826 14.1068 28.3213 12.4284C27.4601 10.75 26.2117 9.30221 24.6801 8.20553C23.1486 7.10885 21.3781 6.39499 19.5161 6.12336C17.654 5.85173 15.7542 6.03018 13.9748 6.64387C12.1954 7.25755 10.5877 8.28872 9.2857 9.65157C7.98367 11.0144 7.02488 12.6695 6.48911 14.4792C5.95334 16.2888 5.85609 18.2007 6.20545 20.0557C6.55482 21.9106 7.34069 23.6551 8.49767 25.1438C10.977 28.2153 12.3537 32.0345 12.4063 35.9865V36.7214H23.2135V35.6311C23.2619 31.8412 24.6032 28.1824 27.0141 25.2643C28.7059 23.1678 29.6299 20.5526 29.6318 17.8552Z" fill="url(#paint0_linear_107_44)"/>
<path d="M12.1443 39.0844H23.4875" stroke="#6C6FDE" stroke-width="1.18159" stroke-linecap="round"/>
<path d="M12.1443 40.975H23.4875" stroke="#6C6FDE" stroke-width="1.18159" stroke-linecap="round"/>
<path d="M12.1443 42.8656H23.4875" stroke="#6C6FDE" stroke-width="1.18159" stroke-linecap="round"/>
<path d="M17.0368 7.41784C17.5477 8.2025 14.2616 8.59303 12.0741 10.0173C9.88663 11.4417 8.87417 14.3468 8.36326 13.5621C7.85236 12.7775 9.1777 10.2601 11.3652 8.83579C13.5526 7.41148 16.5259 6.63319 17.0368 7.41784Z" fill="white"/>
<path d="M53.2031 22.5156V26.1719H41.3281V22.5156H53.2031ZM42.7188 13.25V36H38.0312V13.25H42.7188ZM56.5469 13.25V36H51.875V13.25H56.5469ZM69.4688 32.1875V24.6562C69.4688 24.1146 69.3802 23.651 69.2031 23.2656C69.026 22.8698 68.75 22.5625 68.375 22.3438C68.0104 22.125 67.5365 22.0156 66.9531 22.0156C66.4531 22.0156 66.0208 22.1042 65.6562 22.2812C65.2917 22.4479 65.0104 22.6927 64.8125 23.0156C64.6146 23.3281 64.5156 23.6979 64.5156 24.125H60.0156C60.0156 23.4062 60.1823 22.724 60.5156 22.0781C60.849 21.4323 61.3333 20.8646 61.9688 20.375C62.6042 19.875 63.3594 19.4844 64.2344 19.2031C65.1198 18.9219 66.1094 18.7812 67.2031 18.7812C68.5156 18.7812 69.6823 19 70.7031 19.4375C71.724 19.875 72.526 20.5312 73.1094 21.4062C73.7031 22.2812 74 23.375 74 24.6875V31.9219C74 32.849 74.0573 33.6094 74.1719 34.2031C74.2865 34.7865 74.4531 35.2969 74.6719 35.7344V36H70.125C69.9062 35.5417 69.7396 34.9688 69.625 34.2812C69.5208 33.5833 69.4688 32.8854 69.4688 32.1875ZM70.0625 25.7031L70.0938 28.25H67.5781C66.9844 28.25 66.4688 28.3177 66.0312 28.4531C65.5938 28.5885 65.2344 28.7812 64.9531 29.0312C64.6719 29.2708 64.4635 29.5521 64.3281 29.875C64.2031 30.1979 64.1406 30.5521 64.1406 30.9375C64.1406 31.3229 64.2292 31.6719 64.4062 31.9844C64.5833 32.2865 64.8385 32.526 65.1719 32.7031C65.5052 32.8698 65.8958 32.9531 66.3438 32.9531C67.0208 32.9531 67.6094 32.8177 68.1094 32.5469C68.6094 32.276 68.9948 31.9427 69.2656 31.5469C69.5469 31.151 69.6927 30.776 69.7031 30.4219L70.8906 32.3281C70.724 32.7552 70.4948 33.1979 70.2031 33.6562C69.9219 34.1146 69.5625 34.5469 69.125 34.9531C68.6875 35.349 68.1615 35.6771 67.5469 35.9375C66.9323 36.1875 66.2031 36.3125 65.3594 36.3125C64.2865 36.3125 63.3125 36.099 62.4375 35.6719C61.5729 35.2344 60.8854 34.6354 60.375 33.875C59.875 33.1042 59.625 32.2292 59.625 31.25C59.625 30.3646 59.7917 29.5781 60.125 28.8906C60.4583 28.2031 60.9479 27.625 61.5938 27.1562C62.25 26.6771 63.0677 26.3177 64.0469 26.0781C65.026 25.8281 66.1615 25.7031 67.4531 25.7031H70.0625ZM82.2188 12V36H77.7031V12H82.2188ZM90.6875 12V36H86.1719V12H90.6875ZM104.406 31.9531V19.0938H108.906V36H104.672L104.406 31.9531ZM104.906 28.4844L106.234 28.4531C106.234 29.5781 106.104 30.625 105.844 31.5938C105.583 32.5521 105.193 33.3854 104.672 34.0938C104.151 34.7917 103.495 35.3385 102.703 35.7344C101.911 36.1198 100.979 36.3125 99.9062 36.3125C99.0833 36.3125 98.3229 36.1979 97.625 35.9688C96.9375 35.7292 96.3438 35.3594 95.8438 34.8594C95.3542 34.349 94.9688 33.6979 94.6875 32.9062C94.4167 32.1042 94.2812 31.1406 94.2812 30.0156V19.0938H98.7812V30.0469C98.7812 30.5469 98.8385 30.9688 98.9531 31.3125C99.0781 31.6562 99.25 31.9375 99.4688 32.1562C99.6875 32.375 99.9427 32.5312 100.234 32.625C100.536 32.7188 100.87 32.7656 101.234 32.7656C102.161 32.7656 102.891 32.5781 103.422 32.2031C103.964 31.8281 104.344 31.3177 104.562 30.6719C104.792 30.0156 104.906 29.2865 104.906 28.4844ZM116.844 22.5938V36H112.328V19.0938H116.562L116.844 22.5938ZM116.219 26.9531H114.969C114.969 25.776 115.109 24.6927 115.391 23.7031C115.682 22.7031 116.104 21.8385 116.656 21.1094C117.219 20.3698 117.911 19.7969 118.734 19.3906C119.557 18.9844 120.51 18.7812 121.594 18.7812C122.344 18.7812 123.031 18.8958 123.656 19.125C124.281 19.3438 124.818 19.6927 125.266 20.1719C125.724 20.6406 126.078 21.2552 126.328 22.0156C126.578 22.7656 126.703 23.6667 126.703 24.7188V36H122.203V25.2188C122.203 24.4479 122.099 23.8542 121.891 23.4375C121.682 23.0208 121.385 22.7292 121 22.5625C120.625 22.3958 120.172 22.3125 119.641 22.3125C119.057 22.3125 118.547 22.4323 118.109 22.6719C117.682 22.9115 117.328 23.2448 117.047 23.6719C116.766 24.0885 116.557 24.5781 116.422 25.1406C116.286 25.7031 116.219 26.3073 116.219 26.9531ZM126.281 26.4375L124.672 26.6406C124.672 25.5365 124.807 24.5104 125.078 23.5625C125.359 22.6146 125.771 21.7812 126.312 21.0625C126.865 20.3438 127.547 19.7865 128.359 19.3906C129.172 18.9844 130.109 18.7812 131.172 18.7812C131.984 18.7812 132.724 18.901 133.391 19.1406C134.057 19.3698 134.625 19.7396 135.094 20.25C135.573 20.75 135.938 21.4062 136.188 22.2188C136.448 23.0312 136.578 24.026 136.578 25.2031V36H132.062V25.2031C132.062 24.4219 131.958 23.8281 131.75 23.4219C131.552 23.0052 131.26 22.7188 130.875 22.5625C130.5 22.3958 130.052 22.3125 129.531 22.3125C128.99 22.3125 128.516 22.4219 128.109 22.6406C127.703 22.849 127.365 23.1406 127.094 23.5156C126.823 23.8906 126.62 24.3281 126.484 24.8281C126.349 25.3177 126.281 25.8542 126.281 26.4375ZM144.812 19.0938V36H140.297V19.0938H144.812ZM140.016 14.6875C140.016 14.0312 140.245 13.4896 140.703 13.0625C141.161 12.6354 141.776 12.4219 142.547 12.4219C143.307 12.4219 143.917 12.6354 144.375 13.0625C144.844 13.4896 145.078 14.0312 145.078 14.6875C145.078 15.3438 144.844 15.8854 144.375 16.3125C143.917 16.7396 143.307 16.9531 142.547 16.9531C141.776 16.9531 141.161 16.7396 140.703 16.3125C140.245 15.8854 140.016 15.3438 140.016 14.6875ZM152.938 22.7031V36H148.438V19.0938H152.656L152.938 22.7031ZM152.281 26.9531H151.062C151.062 25.7031 151.224 24.5781 151.547 23.5781C151.87 22.5677 152.323 21.7083 152.906 21C153.49 20.2812 154.182 19.7344 154.984 19.3594C155.797 18.974 156.703 18.7812 157.703 18.7812C158.495 18.7812 159.219 18.8958 159.875 19.125C160.531 19.3542 161.094 19.7188 161.562 20.2188C162.042 20.7188 162.406 21.3802 162.656 22.2031C162.917 23.026 163.047 24.0312 163.047 25.2188V36H158.516V25.2031C158.516 24.4531 158.411 23.8698 158.203 23.4531C157.995 23.0365 157.688 22.7448 157.281 22.5781C156.885 22.401 156.396 22.3125 155.812 22.3125C155.208 22.3125 154.682 22.4323 154.234 22.6719C153.797 22.9115 153.432 23.2448 153.141 23.6719C152.859 24.0885 152.646 24.5781 152.5 25.1406C152.354 25.7031 152.281 26.3073 152.281 26.9531ZM175.594 32.1875V24.6562C175.594 24.1146 175.505 23.651 175.328 23.2656C175.151 22.8698 174.875 22.5625 174.5 22.3438C174.135 22.125 173.661 22.0156 173.078 22.0156C172.578 22.0156 172.146 22.1042 171.781 22.2812C171.417 22.4479 171.135 22.6927 170.938 23.0156C170.74 23.3281 170.641 23.6979 170.641 24.125H166.141C166.141 23.4062 166.307 22.724 166.641 22.0781C166.974 21.4323 167.458 20.8646 168.094 20.375C168.729 19.875 169.484 19.4844 170.359 19.2031C171.245 18.9219 172.234 18.7812 173.328 18.7812C174.641 18.7812 175.807 19 176.828 19.4375C177.849 19.875 178.651 20.5312 179.234 21.4062C179.828 22.2812 180.125 23.375 180.125 24.6875V31.9219C180.125 32.849 180.182 33.6094 180.297 34.2031C180.411 34.7865 180.578 35.2969 180.797 35.7344V36H176.25C176.031 35.5417 175.865 34.9688 175.75 34.2812C175.646 33.5833 175.594 32.8854 175.594 32.1875ZM176.188 25.7031L176.219 28.25H173.703C173.109 28.25 172.594 28.3177 172.156 28.4531C171.719 28.5885 171.359 28.7812 171.078 29.0312C170.797 29.2708 170.589 29.5521 170.453 29.875C170.328 30.1979 170.266 30.5521 170.266 30.9375C170.266 31.3229 170.354 31.6719 170.531 31.9844C170.708 32.2865 170.964 32.526 171.297 32.7031C171.63 32.8698 172.021 32.9531 172.469 32.9531C173.146 32.9531 173.734 32.8177 174.234 32.5469C174.734 32.276 175.12 31.9427 175.391 31.5469C175.672 31.151 175.818 30.776 175.828 30.4219L177.016 32.3281C176.849 32.7552 176.62 33.1979 176.328 33.6562C176.047 34.1146 175.688 34.5469 175.25 34.9531C174.812 35.349 174.286 35.6771 173.672 35.9375C173.057 36.1875 172.328 36.3125 171.484 36.3125C170.411 36.3125 169.438 36.099 168.562 35.6719C167.698 35.2344 167.01 34.6354 166.5 33.875C166 33.1042 165.75 32.2292 165.75 31.25C165.75 30.3646 165.917 29.5781 166.25 28.8906C166.583 28.2031 167.073 27.625 167.719 27.1562C168.375 26.6771 169.193 26.3177 170.172 26.0781C171.151 25.8281 172.286 25.7031 173.578 25.7031H176.188ZM191.875 19.0938V22.2812H182.031V19.0938H191.875ZM184.469 14.9219H188.969V30.9062C188.969 31.3958 189.031 31.7708 189.156 32.0312C189.292 32.2917 189.49 32.474 189.75 32.5781C190.01 32.6719 190.339 32.7188 190.734 32.7188C191.016 32.7188 191.266 32.7083 191.484 32.6875C191.714 32.6562 191.906 32.625 192.062 32.5938L192.078 35.9062C191.693 36.0312 191.276 36.1302 190.828 36.2031C190.38 36.276 189.885 36.3125 189.344 36.3125C188.354 36.3125 187.49 36.151 186.75 35.8281C186.021 35.4948 185.458 34.9635 185.062 34.2344C184.667 33.5052 184.469 32.5469 184.469 31.3594V14.9219ZM202.219 36.3125C200.906 36.3125 199.729 36.1042 198.688 35.6875C197.646 35.2604 196.76 34.6719 196.031 33.9219C195.312 33.1719 194.76 32.3021 194.375 31.3125C193.99 30.3125 193.797 29.25 193.797 28.125V27.5C193.797 26.2188 193.979 25.0469 194.344 23.9844C194.708 22.9219 195.229 22 195.906 21.2188C196.594 20.4375 197.427 19.8385 198.406 19.4219C199.385 18.9948 200.49 18.7812 201.719 18.7812C202.917 18.7812 203.979 18.9792 204.906 19.375C205.833 19.7708 206.609 20.3333 207.234 21.0625C207.87 21.7917 208.349 22.6667 208.672 23.6875C208.995 24.6979 209.156 25.8229 209.156 27.0625V28.9375H195.719V25.9375H204.734V25.5938C204.734 24.9688 204.62 24.4115 204.391 23.9219C204.172 23.4219 203.839 23.026 203.391 22.7344C202.943 22.4427 202.37 22.2969 201.672 22.2969C201.078 22.2969 200.568 22.4271 200.141 22.6875C199.714 22.9479 199.365 23.3125 199.094 23.7812C198.833 24.25 198.635 24.8021 198.5 25.4375C198.375 26.0625 198.312 26.75 198.312 27.5V28.125C198.312 28.8021 198.406 29.4271 198.594 30C198.792 30.5729 199.068 31.0677 199.422 31.4844C199.786 31.901 200.224 32.224 200.734 32.4531C201.255 32.6823 201.844 32.7969 202.5 32.7969C203.312 32.7969 204.068 32.6406 204.766 32.3281C205.474 32.0052 206.083 31.5208 206.594 30.875L208.781 33.25C208.427 33.7604 207.943 34.25 207.328 34.7188C206.724 35.1875 205.995 35.5729 205.141 35.875C204.286 36.1667 203.312 36.3125 202.219 36.3125Z" fill="url(#paint1_linear_107_44)"/>
</g>
<defs>
<filter id="filter0_d_107_44" x="0" y="0" width="211.156" height="45.4564" filterUnits="userSpaceOnUse" color-interpolation-filters="sRGB">
<feFlood flood-opacity="0" result="BackgroundImageFix"/>
<feColorMatrix in="SourceAlpha" type="matrix" values="0 0 0 0 0 0 0 0 0 0 0 0 0 0 0 0 0 0 127 0" result="hardAlpha"/>
<feOffset dx="-2" dy="-2"/>
<feGaussianBlur stdDeviation="2"/>
<feComposite in2="hardAlpha" operator="out"/>
<feColorMatrix type="matrix" values="0 0 0 0 0.858333 0 0 0 0 0.858333 0 0 0 0 0.858333 0 0 0 0.45 0"/>
<feBlend mode="normal" in2="BackgroundImageFix" result="effect1_dropShadow_107_44"/>
<feBlend mode="normal" in="SourceGraphic" in2="effect1_dropShadow_107_44" result="shape"/>
</filter>
<linearGradient id="paint0_linear_107_44" x1="17.8159" y1="6" x2="17.8159" y2="36.7214" gradientUnits="userSpaceOnUse">
<stop stop-color="#F7E5C1"/>
<stop offset="1" stop-color="#6C6FDE"/>
</linearGradient>
<linearGradient id="paint1_linear_107_44" x1="123" y1="44" x2="123" y2="6" gradientUnits="userSpaceOnUse">
<stop offset="0.3" stop-color="#7678DD"/>
<stop offset="1" stop-color="#F1E0C3"/>
</linearGradient>
</defs>
</svg>
